<mxfile host="app.diagrams.net" modified="2023-09-25T15:09:16.237Z" agent="Mozilla/5.0 (Windows NT 10.0; Win64; x64) AppleWebKit/537.36 (KHTML, like Gecko) Chrome/117.0.0.0 Safari/537.36" etag="8zrWqKe_TeOwOYv7q_tO" version="21.8.0" type="device">
  <diagram name="Страница — 1" id="pqy5NHnVCrTciRfHO0LJ">
    <mxGraphModel dx="656" dy="354" grid="1" gridSize="10" guides="1" tooltips="1" connect="1" arrows="1" fold="1" page="1" pageScale="1" pageWidth="827" pageHeight="1169" math="0" shadow="0">
      <root>
        <mxCell id="0" />
        <mxCell id="1" parent="0" />
        <mxCell id="dPaeo19KGGqcbV5FyLAS-39" value="" style="rounded=1;whiteSpace=wrap;html=1;fillColor=#dae8fc;strokeColor=#6c8ebf;" parent="1" vertex="1">
          <mxGeometry x="200" width="590" height="800" as="geometry" />
        </mxCell>
        <mxCell id="dPaeo19KGGqcbV5FyLAS-1" value="Незарегистрированный&lt;br&gt;пользователь" style="shape=umlActor;verticalLabelPosition=bottom;verticalAlign=top;html=1;outlineConnect=0;" parent="1" vertex="1">
          <mxGeometry x="105" y="180" width="30" height="60" as="geometry" />
        </mxCell>
        <mxCell id="dPaeo19KGGqcbV5FyLAS-2" value="Зарегистрированный&lt;br&gt;пользователь" style="shape=umlActor;verticalLabelPosition=bottom;verticalAlign=top;html=1;outlineConnect=0;" parent="1" vertex="1">
          <mxGeometry x="105" y="300" width="30" height="60" as="geometry" />
        </mxCell>
        <mxCell id="dPaeo19KGGqcbV5FyLAS-4" value="Зарегистрироваться" style="ellipse;whiteSpace=wrap;html=1;" parent="1" vertex="1">
          <mxGeometry x="270" y="100" width="120" height="50" as="geometry" />
        </mxCell>
        <mxCell id="dPaeo19KGGqcbV5FyLAS-5" value="" style="endArrow=none;html=1;rounded=0;exitX=0.5;exitY=0.5;exitDx=0;exitDy=0;exitPerimeter=0;entryX=0;entryY=0.5;entryDx=0;entryDy=0;" parent="1" source="dPaeo19KGGqcbV5FyLAS-1" target="dPaeo19KGGqcbV5FyLAS-4" edge="1">
          <mxGeometry width="50" height="50" relative="1" as="geometry">
            <mxPoint x="460" y="370" as="sourcePoint" />
            <mxPoint x="299.79999999999995" y="210" as="targetPoint" />
            <Array as="points">
              <mxPoint x="240" y="210" />
              <mxPoint x="240" y="125" />
            </Array>
          </mxGeometry>
        </mxCell>
        <mxCell id="dPaeo19KGGqcbV5FyLAS-6" value="Авторизоваться&lt;br&gt;в системе" style="ellipse;whiteSpace=wrap;html=1;" parent="1" vertex="1">
          <mxGeometry x="270" y="185" width="120" height="50" as="geometry" />
        </mxCell>
        <mxCell id="dPaeo19KGGqcbV5FyLAS-7" value="Просмотреть товар" style="ellipse;whiteSpace=wrap;html=1;" parent="1" vertex="1">
          <mxGeometry x="270" y="250" width="120" height="50" as="geometry" />
        </mxCell>
        <mxCell id="dPaeo19KGGqcbV5FyLAS-8" value="Сделать заказ" style="ellipse;whiteSpace=wrap;html=1;" parent="1" vertex="1">
          <mxGeometry x="270" y="320" width="120" height="50" as="geometry" />
        </mxCell>
        <mxCell id="dPaeo19KGGqcbV5FyLAS-9" value="Отменить заказ" style="ellipse;whiteSpace=wrap;html=1;" parent="1" vertex="1">
          <mxGeometry x="270" y="390" width="120" height="50" as="geometry" />
        </mxCell>
        <mxCell id="dPaeo19KGGqcbV5FyLAS-10" value="" style="endArrow=none;html=1;rounded=0;exitX=0.5;exitY=0.5;exitDx=0;exitDy=0;exitPerimeter=0;entryX=0;entryY=0.5;entryDx=0;entryDy=0;" parent="1" source="dPaeo19KGGqcbV5FyLAS-2" target="dPaeo19KGGqcbV5FyLAS-6" edge="1">
          <mxGeometry width="50" height="50" relative="1" as="geometry">
            <mxPoint x="460" y="370" as="sourcePoint" />
            <mxPoint x="510" y="320" as="targetPoint" />
            <Array as="points">
              <mxPoint x="250" y="330" />
              <mxPoint x="250" y="210" />
            </Array>
          </mxGeometry>
        </mxCell>
        <mxCell id="dPaeo19KGGqcbV5FyLAS-11" value="" style="endArrow=none;html=1;rounded=0;exitX=0.5;exitY=0.5;exitDx=0;exitDy=0;exitPerimeter=0;entryX=0;entryY=0.5;entryDx=0;entryDy=0;" parent="1" source="dPaeo19KGGqcbV5FyLAS-1" target="dPaeo19KGGqcbV5FyLAS-6" edge="1">
          <mxGeometry width="50" height="50" relative="1" as="geometry">
            <mxPoint x="460" y="370" as="sourcePoint" />
            <mxPoint x="510" y="320" as="targetPoint" />
          </mxGeometry>
        </mxCell>
        <mxCell id="dPaeo19KGGqcbV5FyLAS-12" value="" style="endArrow=none;html=1;rounded=0;exitX=0;exitY=0.5;exitDx=0;exitDy=0;" parent="1" source="dPaeo19KGGqcbV5FyLAS-7" edge="1">
          <mxGeometry width="50" height="50" relative="1" as="geometry">
            <mxPoint x="460" y="370" as="sourcePoint" />
            <mxPoint x="250" y="275" as="targetPoint" />
          </mxGeometry>
        </mxCell>
        <mxCell id="dPaeo19KGGqcbV5FyLAS-13" value="" style="endArrow=none;html=1;rounded=0;exitX=0;exitY=0.5;exitDx=0;exitDy=0;entryX=0.5;entryY=0.5;entryDx=0;entryDy=0;entryPerimeter=0;" parent="1" source="dPaeo19KGGqcbV5FyLAS-9" target="dPaeo19KGGqcbV5FyLAS-2" edge="1">
          <mxGeometry width="50" height="50" relative="1" as="geometry">
            <mxPoint x="460" y="370" as="sourcePoint" />
            <mxPoint x="510" y="320" as="targetPoint" />
            <Array as="points">
              <mxPoint x="250" y="415" />
              <mxPoint x="250" y="330" />
            </Array>
          </mxGeometry>
        </mxCell>
        <mxCell id="dPaeo19KGGqcbV5FyLAS-14" value="" style="endArrow=none;html=1;rounded=0;exitX=0;exitY=0.5;exitDx=0;exitDy=0;" parent="1" edge="1">
          <mxGeometry width="50" height="50" relative="1" as="geometry">
            <mxPoint x="270" y="344.8" as="sourcePoint" />
            <mxPoint x="250" y="344.8" as="targetPoint" />
          </mxGeometry>
        </mxCell>
        <mxCell id="dPaeo19KGGqcbV5FyLAS-15" value="Ввести email" style="ellipse;whiteSpace=wrap;html=1;" parent="1" vertex="1">
          <mxGeometry x="440" y="10" width="120" height="50" as="geometry" />
        </mxCell>
        <mxCell id="dPaeo19KGGqcbV5FyLAS-16" value="Придумать пароль" style="ellipse;whiteSpace=wrap;html=1;" parent="1" vertex="1">
          <mxGeometry x="440" y="80" width="120" height="50" as="geometry" />
        </mxCell>
        <mxCell id="dPaeo19KGGqcbV5FyLAS-17" value="" style="endArrow=none;html=1;rounded=0;exitX=1;exitY=0.5;exitDx=0;exitDy=0;entryX=0;entryY=0.5;entryDx=0;entryDy=0;" parent="1" source="dPaeo19KGGqcbV5FyLAS-4" target="dPaeo19KGGqcbV5FyLAS-16" edge="1">
          <mxGeometry width="50" height="50" relative="1" as="geometry">
            <mxPoint x="620" y="290" as="sourcePoint" />
            <mxPoint x="430" y="125" as="targetPoint" />
            <Array as="points">
              <mxPoint x="430" y="125" />
              <mxPoint x="430" y="105" />
            </Array>
          </mxGeometry>
        </mxCell>
        <mxCell id="dPaeo19KGGqcbV5FyLAS-18" value="" style="endArrow=none;html=1;rounded=0;entryX=0;entryY=0.5;entryDx=0;entryDy=0;" parent="1" target="dPaeo19KGGqcbV5FyLAS-15" edge="1">
          <mxGeometry width="50" height="50" relative="1" as="geometry">
            <mxPoint x="430" y="105" as="sourcePoint" />
            <mxPoint x="480" y="55" as="targetPoint" />
            <Array as="points">
              <mxPoint x="430" y="35" />
            </Array>
          </mxGeometry>
        </mxCell>
        <mxCell id="dPaeo19KGGqcbV5FyLAS-19" value="Ввести email" style="ellipse;whiteSpace=wrap;html=1;" parent="1" vertex="1">
          <mxGeometry x="440" y="150" width="120" height="50" as="geometry" />
        </mxCell>
        <mxCell id="dPaeo19KGGqcbV5FyLAS-20" value="Ввести пароль" style="ellipse;whiteSpace=wrap;html=1;" parent="1" vertex="1">
          <mxGeometry x="440" y="220" width="120" height="50" as="geometry" />
        </mxCell>
        <mxCell id="dPaeo19KGGqcbV5FyLAS-21" value="" style="endArrow=none;html=1;rounded=0;exitX=1;exitY=0.5;exitDx=0;exitDy=0;entryX=0;entryY=0.5;entryDx=0;entryDy=0;" parent="1" source="dPaeo19KGGqcbV5FyLAS-6" target="dPaeo19KGGqcbV5FyLAS-19" edge="1">
          <mxGeometry width="50" height="50" relative="1" as="geometry">
            <mxPoint x="620" y="290" as="sourcePoint" />
            <mxPoint x="670" y="240" as="targetPoint" />
            <Array as="points">
              <mxPoint x="430" y="210" />
              <mxPoint x="430" y="175" />
            </Array>
          </mxGeometry>
        </mxCell>
        <mxCell id="dPaeo19KGGqcbV5FyLAS-22" value="" style="endArrow=none;html=1;rounded=0;entryX=0;entryY=0.5;entryDx=0;entryDy=0;" parent="1" target="dPaeo19KGGqcbV5FyLAS-20" edge="1">
          <mxGeometry width="50" height="50" relative="1" as="geometry">
            <mxPoint x="430" y="210" as="sourcePoint" />
            <mxPoint x="670" y="240" as="targetPoint" />
            <Array as="points">
              <mxPoint x="430" y="245" />
            </Array>
          </mxGeometry>
        </mxCell>
        <mxCell id="dPaeo19KGGqcbV5FyLAS-23" value="Выбрать модели&lt;br&gt;одежды" style="ellipse;whiteSpace=wrap;html=1;" parent="1" vertex="1">
          <mxGeometry x="620" y="285" width="120" height="50" as="geometry" />
        </mxCell>
        <mxCell id="dPaeo19KGGqcbV5FyLAS-24" value="Выбрать количество&lt;br&gt;моделей" style="ellipse;whiteSpace=wrap;html=1;" parent="1" vertex="1">
          <mxGeometry x="620" y="355" width="130" height="50" as="geometry" />
        </mxCell>
        <mxCell id="dPaeo19KGGqcbV5FyLAS-25" value="" style="endArrow=none;html=1;rounded=0;exitX=1;exitY=0.5;exitDx=0;exitDy=0;entryX=0;entryY=0.5;entryDx=0;entryDy=0;" parent="1" source="dPaeo19KGGqcbV5FyLAS-8" target="dPaeo19KGGqcbV5FyLAS-23" edge="1">
          <mxGeometry width="50" height="50" relative="1" as="geometry">
            <mxPoint x="660" y="400" as="sourcePoint" />
            <mxPoint x="710" y="350" as="targetPoint" />
            <Array as="points">
              <mxPoint x="590" y="345" />
              <mxPoint x="590" y="310" />
            </Array>
          </mxGeometry>
        </mxCell>
        <mxCell id="dPaeo19KGGqcbV5FyLAS-26" value="" style="endArrow=none;html=1;rounded=0;entryX=0;entryY=0.5;entryDx=0;entryDy=0;" parent="1" target="dPaeo19KGGqcbV5FyLAS-24" edge="1">
          <mxGeometry width="50" height="50" relative="1" as="geometry">
            <mxPoint x="590" y="340" as="sourcePoint" />
            <mxPoint x="710" y="350" as="targetPoint" />
            <Array as="points">
              <mxPoint x="590" y="380" />
            </Array>
          </mxGeometry>
        </mxCell>
        <mxCell id="dPaeo19KGGqcbV5FyLAS-28" value="Выбрать дату&lt;br&gt;доставки" style="ellipse;whiteSpace=wrap;html=1;" parent="1" vertex="1">
          <mxGeometry x="620" y="430" width="120" height="50" as="geometry" />
        </mxCell>
        <mxCell id="dPaeo19KGGqcbV5FyLAS-29" value="" style="endArrow=none;html=1;rounded=0;exitX=0;exitY=0.5;exitDx=0;exitDy=0;" parent="1" source="dPaeo19KGGqcbV5FyLAS-28" edge="1">
          <mxGeometry width="50" height="50" relative="1" as="geometry">
            <mxPoint x="680" y="400" as="sourcePoint" />
            <mxPoint x="590" y="380" as="targetPoint" />
            <Array as="points">
              <mxPoint x="590" y="455" />
            </Array>
          </mxGeometry>
        </mxCell>
        <mxCell id="dPaeo19KGGqcbV5FyLAS-30" value="Сотрудник" style="shape=umlActor;verticalLabelPosition=bottom;verticalAlign=top;html=1;outlineConnect=0;" parent="1" vertex="1">
          <mxGeometry x="105" y="520" width="30" height="60" as="geometry" />
        </mxCell>
        <mxCell id="dPaeo19KGGqcbV5FyLAS-31" value="Найти свободный&lt;br&gt;заказ" style="ellipse;whiteSpace=wrap;html=1;" parent="1" vertex="1">
          <mxGeometry x="270" y="525" width="120" height="50" as="geometry" />
        </mxCell>
        <mxCell id="dPaeo19KGGqcbV5FyLAS-32" value="Посмотреть&lt;br&gt;информацию&lt;br&gt;о заказе" style="ellipse;whiteSpace=wrap;html=1;" parent="1" vertex="1">
          <mxGeometry x="270" y="600" width="120" height="50" as="geometry" />
        </mxCell>
        <mxCell id="dPaeo19KGGqcbV5FyLAS-33" value="Выбрать заказ&lt;br&gt;для выполнения" style="ellipse;whiteSpace=wrap;html=1;" parent="1" vertex="1">
          <mxGeometry x="270" y="670" width="120" height="50" as="geometry" />
        </mxCell>
        <mxCell id="dPaeo19KGGqcbV5FyLAS-34" value="Поменять статус&lt;br&gt;заказа" style="ellipse;whiteSpace=wrap;html=1;" parent="1" vertex="1">
          <mxGeometry x="270" y="740" width="120" height="50" as="geometry" />
        </mxCell>
        <mxCell id="dPaeo19KGGqcbV5FyLAS-35" value="" style="endArrow=none;html=1;rounded=0;entryX=0;entryY=0.5;entryDx=0;entryDy=0;exitX=0;exitY=0.5;exitDx=0;exitDy=0;" parent="1" source="dPaeo19KGGqcbV5FyLAS-34" target="dPaeo19KGGqcbV5FyLAS-31" edge="1">
          <mxGeometry width="50" height="50" relative="1" as="geometry">
            <mxPoint x="500" y="590" as="sourcePoint" />
            <mxPoint x="550" y="540" as="targetPoint" />
            <Array as="points">
              <mxPoint x="250" y="765" />
              <mxPoint x="250" y="550" />
            </Array>
          </mxGeometry>
        </mxCell>
        <mxCell id="dPaeo19KGGqcbV5FyLAS-37" value="" style="endArrow=none;html=1;rounded=0;exitX=0;exitY=0.5;exitDx=0;exitDy=0;entryX=0;entryY=0.5;entryDx=0;entryDy=0;" parent="1" source="dPaeo19KGGqcbV5FyLAS-33" target="dPaeo19KGGqcbV5FyLAS-32" edge="1">
          <mxGeometry width="50" height="50" relative="1" as="geometry">
            <mxPoint x="360" y="670" as="sourcePoint" />
            <mxPoint x="410" y="620" as="targetPoint" />
            <Array as="points">
              <mxPoint x="250" y="695" />
              <mxPoint x="250" y="625" />
            </Array>
          </mxGeometry>
        </mxCell>
        <mxCell id="dPaeo19KGGqcbV5FyLAS-38" value="" style="endArrow=none;html=1;rounded=0;exitX=0.5;exitY=0.5;exitDx=0;exitDy=0;exitPerimeter=0;" parent="1" source="dPaeo19KGGqcbV5FyLAS-30" edge="1">
          <mxGeometry width="50" height="50" relative="1" as="geometry">
            <mxPoint x="590" y="500" as="sourcePoint" />
            <mxPoint x="250" y="550" as="targetPoint" />
          </mxGeometry>
        </mxCell>
        <mxCell id="dPaeo19KGGqcbV5FyLAS-40" value="Функциональная диаграмма (Use case)" style="text;html=1;strokeColor=none;fillColor=none;align=center;verticalAlign=middle;whiteSpace=wrap;rounded=0;" parent="1" vertex="1">
          <mxGeometry x="350" y="800" width="250" height="30" as="geometry" />
        </mxCell>
        <mxCell id="rIZN_CFMHr-tdYsmAchM-1" value="" style="endArrow=classic;html=1;rounded=0;entryX=0.021;entryY=0.6;entryDx=0;entryDy=0;entryPerimeter=0;" edge="1" parent="1" source="dPaeo19KGGqcbV5FyLAS-2" target="dPaeo19KGGqcbV5FyLAS-7">
          <mxGeometry width="50" height="50" relative="1" as="geometry">
            <mxPoint x="400" y="320" as="sourcePoint" />
            <mxPoint x="450" y="270" as="targetPoint" />
            <Array as="points">
              <mxPoint x="200" y="300" />
            </Array>
          </mxGeometry>
        </mxCell>
        <mxCell id="rIZN_CFMHr-tdYsmAchM-3" value="" style="endArrow=classic;html=1;rounded=0;entryX=0;entryY=0.5;entryDx=0;entryDy=0;" edge="1" parent="1" target="dPaeo19KGGqcbV5FyLAS-7">
          <mxGeometry width="50" height="50" relative="1" as="geometry">
            <mxPoint x="130" y="210" as="sourcePoint" />
            <mxPoint x="450" y="270" as="targetPoint" />
          </mxGeometry>
        </mxCell>
        <mxCell id="rIZN_CFMHr-tdYsmAchM-4" value="Text" style="edgeLabel;html=1;align=center;verticalAlign=middle;resizable=0;points=[];" vertex="1" connectable="0" parent="rIZN_CFMHr-tdYsmAchM-3">
          <mxGeometry x="-0.0125" relative="1" as="geometry">
            <mxPoint as="offset" />
          </mxGeometry>
        </mxCell>
      </root>
    </mxGraphModel>
  </diagram>
</mxfile>
